<?xml version="1.0" encoding="UTF-8" standalone="no"?>
<!-- Created with Inkscape (http://www.inkscape.org/) -->

<svg
   xmlns:dc="http://purl.org/dc/elements/1.1/"
   xmlns:cc="http://creativecommons.org/ns#"
   xmlns:rdf="http://www.w3.org/1999/02/22-rdf-syntax-ns#"
   xmlns:svg="http://www.w3.org/2000/svg"
   xmlns="http://www.w3.org/2000/svg"
   xmlns:sodipodi="http://sodipodi.sourceforge.net/DTD/sodipodi-0.dtd"
   xmlns:inkscape="http://www.inkscape.org/namespaces/inkscape"
   id="svg4136"
   version="1.1"
   inkscape:version="0.91 r13725"
   width="486.25"
   height="186.25"
   viewBox="0 0 486.25 186.25"
   sodipodi:docname="xampsont_svg.svg">
  <metadata
     id="metadata4142">
    <rdf:RDF>
      <cc:Work
         rdf:about="">
        <dc:format>image/svg+xml</dc:format>
        <dc:type
           rdf:resource="http://purl.org/dc/dcmitype/StillImage" />
        <dc:title></dc:title>
      </cc:Work>
    </rdf:RDF>
  </metadata>
  <defs
     id="defs4140" />
  <sodipodi:namedview
     pagecolor="#ffffff"
     bordercolor="#666666"
     borderopacity="1"
     objecttolerance="10"
     gridtolerance="10"
     guidetolerance="10"
     inkscape:pageopacity="0"
     inkscape:pageshadow="2"
     inkscape:window-width="1600"
     inkscape:window-height="838"
     id="namedview4138"
     showgrid="false"
     inkscape:zoom="1.1825193"
     inkscape:cx="241.33364"
     inkscape:cy="133.29441"
     inkscape:window-x="-8"
     inkscape:window-y="-8"
     inkscape:window-maximized="1"
     inkscape:current-layer="svg4136" />
  <g
     id="g4394"
     transform="translate(13.107612,-10.147818)">
    <path
       style="fill:#6fabdb"
       d="m 48.364129,185.0659 c -1.71875,-0.25178 -7.34375,-1.07006 -12.5,-1.81842 -5.15625,-0.74835 -12.266387,-2.47476 -15.800304,-3.83649 -6.425305,-2.47585 -6.425305,-2.47585 -7.221811,-20.82386 -0.438079,-10.0914 -0.310908,-24.08009 0.282602,-31.08598 0.942381,-11.12403 1.52346,-13.32055 4.586128,-17.33591 3.090884,-4.05236 11.975001,-9.23856 20.98266,-12.248869 1.947409,-0.650812 1.720444,-1.370511 -1.947681,-6.176015 -2.283576,-2.991647 -5.172711,-8.684603 -6.4203,-12.651013 -2.16772,-6.891745 -2.172162,-7.566975 -0.10015,-15.221595 2.910558,-10.752469 8.707911,-18.125022 17.719394,-22.533929 5.651375,-2.76496 8.817266,-3.473951 15.333157,-3.433809 4.516221,0.02782 10.220968,0.917016 12.677218,1.975984 2.456251,1.058967 6.628323,3.823886 9.27127,6.144265 4.675359,4.104735 5.112519,4.221832 16.159088,4.328362 13.97395,0.134762 26.0547,3.545939 36.45871,10.294654 4.06726,2.638288 9.36782,7.001655 11.77902,9.69637 6.52418,7.291313 14.85105,24.730173 16.36572,34.274485 2.33686,14.72516 -1.12772,30.25286 -9.62214,43.125 -5.60183,8.48879 -6.29085,9.2249 -14.87758,15.89447 -9.47983,7.36328 -25.72914,14.6561 -20.08928,9.01624 1.3783,-1.3783 1.96428,-4.36147 1.96428,-10 0,-8.03571 0,-8.03571 8.125,-8.03571 6.45834,0 8.63782,-0.51283 10.625,-2.5 1.375,-1.375 2.5,-3.58418 2.5,-4.90928 0,-1.3251 -1.48211,-3.5751 -3.29358,-5 -2.48172,-1.95212 -5.10073,-2.59072 -10.625,-2.59072 -7.33142,0 -7.33142,0 -7.33142,-7.93126 0,-6.0962 -0.5289,-8.40992 -2.28593,-10.00001 -2.99892,-2.71399 -6.82265,-2.6256 -9.39534,0.2172 -1.48981,1.64622 -2.06873,4.61955 -2.06873,10.62499 0,8.33908 0,8.33908 -8.55627,8.33908 -6.701677,0 -9.004663,0.49547 -10.624995,2.28592 -2.749197,3.03783 -2.610419,5.92239 0.431265,8.96408 1.987179,1.98717 4.166666,2.5 10.625,2.5 8.125,0 8.125,0 8.14414,7.8125 0.0105,4.29687 0.44828,8.4876 0.97279,9.31274 0.5245,0.82512 2.34402,2.03282 4.04336,2.68376 3.08971,1.18354 3.08971,1.18354 -0.66029,2.67251 -6.30795,2.50463 -21.096759,6.0272 -31.208594,7.43363 -9.04904,1.2586 -27.52162,1.54663 -34.416407,0.53663 z M 138.1235,118.67663 c 0.35615,-4.92239 0.64697,-5.3125 3.96027,-5.3125 5.18133,0 7.53036,-1.19778 7.53036,-3.83976 0,-2.74228 -3.55105,-4.91024 -8.04283,-4.91024 -2.66076,0 -3.21043,-0.58565 -3.22631,-3.4375 -0.0256,-4.607107 -1.6532,-6.904384 -4.50565,-6.359721 -1.50337,0.287065 -2.75605,2.086307 -3.47651,4.993422 -1.00133,4.040359 -1.6655,4.630879 -5.98534,5.321649 -2.67247,0.42735 -5.18168,1.61782 -5.57604,2.64549 -1.13117,2.94779 1.98197,5.58666 6.59074,5.58666 3.943,0 4.22194,0.27253 4.22194,4.125 0,4.82591 2.07784,7.3667 5.6104,6.8604 1.9941,-0.2858 2.59416,-1.46004 2.89897,-5.6729 z M 191.31187,88.421711 C 184.72,86.84978 178.51324,82.188745 174.97727,76.155063 c -2.78809,-4.757524 -3.45532,-7.635895 -3.89323,-16.795357 -0.32097,-6.713375 0.0881,-13.256101 1.04176,-16.662281 0.86518,-3.090105 3.78642,-8.126107 6.50575,-11.215436 3.81175,-4.33038 6.51664,-6.066663 11.8799,-7.625808 7.70628,-2.240276 16.03949,-1.697453 24.2258,1.578059 4.62768,1.85163 4.87688,2.230509 4.87688,7.414854 0,5.463516 0,5.463516 -5.61253,1.50744 -4.33462,-3.055321 -7.25188,-4.070784 -12.8125,-4.459866 -5.99017,-0.419139 -7.9351,-0.01237 -11.57497,2.421142 -2.513,1.680078 -5.69169,5.582393 -7.46871,9.168949 -2.45113,4.947086 -3.07754,8.085942 -3.01583,15.111887 0.0609,6.931233 0.73651,10.060908 3.09371,14.330799 1.6587,3.004611 4.98458,6.800106 7.39083,8.434433 3.66385,2.488487 5.54535,2.889611 11.57497,2.467712 5.56062,-0.389082 8.47788,-1.404545 12.8125,-4.459866 5.61253,-3.956076 5.61253,-3.956076 5.61253,1.467299 0,5.423373 0,5.423373 -8.15125,8.09924 -8.38261,2.751817 -13.31075,3.11461 -20.15101,1.483448 z m 43.69565,-0.571852 c -6.83687,-3.085684 -7.89339,-6.940366 -7.89339,-28.798655 0,-19.437075 0,-19.437075 3.66201,-19.437075 3.662,0 3.662,0 4.0625,19.478375 0.36138,17.576101 0.63745,19.651392 2.8269,21.25 3.5841,2.616905 9.75846,2.155757 14.57624,-1.088663 4.24735,-2.860287 4.24735,-2.860287 4.59326,-21.25 0.34593,-18.389712 0.34593,-18.389712 4.0625,-18.389712 3.71659,0 3.71659,0 3.71659,24.375 0,24.375 0,24.375 -3.75,24.375 -2.91666,0 -3.75,-0.555555 -3.75,-2.5 0,-1.375 -0.30403,-2.5 -0.67561,-2.5 -0.37159,0 -2.254,1.166944 -4.18313,2.593209 -4.52772,3.347497 -12.16692,4.185706 -17.24787,1.892521 z m 79.72711,0.183342 c -5.28213,-2.714588 -8.2455,-8.010851 -8.2455,-14.736697 0,-5.157141 0.59735,-6.725973 3.75,-9.848651 3.77574,-3.739849 9.46204,-5.647593 20.9375,-7.024488 4.79664,-0.575531 5.9375,-1.178065 5.9375,-3.135827 0,-1.332875 -1.19451,-3.61792 -2.65448,-5.07788 -2.35241,-2.352419 -3.66811,-2.582669 -11.5625,-2.023465 -4.89941,0.347052 -9.8924,1.039246 -11.09552,1.538206 -1.80693,0.74937 -2.1875,0.235664 -2.1875,-2.952719 0,-3.156266 0.62665,-4.026276 3.4375,-4.772466 5.7669,-1.530925 19.4449,-1.112419 23.80895,0.728482 6.8075,2.871638 7.75355,6.312379 7.75355,28.199358 0,19.437075 0,19.437075 -3.75,19.437075 -2.89884,0 -3.75,-0.559464 -3.75,-2.464831 0,-2.363483 -0.23895,-2.337784 -5.81118,0.625 -6.36831,3.386067 -11.93008,3.892587 -16.56832,1.508903 z m 17.52181,-8.649248 c 4.79391,-2.694332 4.85769,-2.827884 4.85769,-10.172102 0,-7.441926 0,-7.441926 -7.14506,-6.602165 -3.92979,0.46187 -8.85167,1.832449 -10.9375,3.045732 -3.00184,1.746095 -3.87484,3.19598 -4.1877,6.954957 -0.51242,6.156481 2.38668,9.503754 8.2313,9.503754 2.37796,0 6.50953,-1.228579 9.18127,-2.730176 z m 32.83636,8.251066 c -2.14297,-1.057201 -4.5336,-3.32086 -5.3125,-5.030354 -0.82203,-1.804185 -1.41617,-9.90093 -1.41617,-19.299352 0,-16.191184 0,-16.191184 -3.125,-16.191184 -2.63889,0 -3.125,-0.583334 -3.125,-3.75 0,-3.166666 0.48611,-3.75 3.125,-3.75 2.95455,0 3.125,-0.375 3.125,-6.875 0,-6.5 0.17045,-6.875 3.125,-6.875 2.95455,0 3.125,0.375 3.125,6.875 0,6.875 0,6.875 8.125,6.875 8.125,0 8.125,0 8.125,3.75 0,3.75 0,3.75 -8.125,3.75 -8.125,0 -8.125,0 -8.10658,14.0625 0.0113,8.875357 0.60505,15.215199 1.60877,17.1875 1.38957,2.730515 2.4132,3.125 8.10878,3.125 6.19934,0 6.51835,0.160282 6.51624,3.273947 -0.002,2.811585 -0.6642,3.383367 -4.68971,4.048743 -6.34815,1.049284 -6.63274,1.019069 -11.08383,-1.1768 z m 54.19698,0.249004 c -2.58464,-0.953394 -5.50961,-2.405913 -6.49995,-3.227819 -0.99034,-0.821908 -3.02408,-4.0217 -4.51941,-7.110651 -3.72883,-7.702738 -3.71754,-19.433434 0.0261,-27.166863 3.62353,-7.485192 9.76781,-11.300275 18.19939,-11.300275 8.21827,0 14.10124,3.427429 18.01401,10.495004 2.40593,4.345805 3.02083,7.28016 3.02083,14.41571 0,7.13555 -0.6149,10.069905 -3.02083,14.41571 -1.66146,3.001067 -4.7112,6.440942 -6.77721,7.644165 -5.36443,3.124196 -12.91214,3.875171 -18.44298,1.835019 z m 15.65392,-8.26084 c 2.04342,-1.607352 3.71298,-4.76797 4.70667,-8.910102 2.05915,-8.583516 -0.054,-18.698212 -4.66397,-22.324425 -3.50695,-2.758561 -11.41515,-3.392318 -15.44151,-1.237472 -8.69452,4.653167 -8.86777,28.589507 -0.24329,33.612806 3.75905,2.189448 12.19008,1.574558 15.6421,-1.140807 z M 277.11413,63.989129 c 0,-24.375 0,-24.375 3.75,-24.375 3.16666,0 3.75,0.486111 3.75,3.125 0,1.71875 0.22384,3.125 0.49741,3.125 0.27358,0 2.94545,-1.399475 5.9375,-3.109944 2.99205,-1.710469 6.70571,-3.116719 8.25259,-3.125 2.36326,-0.01265 2.8125,0.6578 2.8125,4.197379 0,4.038657 -0.22256,4.23752 -5.39509,4.820539 -2.9673,0.334457 -6.9048,1.597305 -8.75,2.806327 -3.35491,2.198224 -3.35491,2.198224 -3.35491,19.554461 0,17.356238 0,17.356238 -3.75,17.356238 -3.75,0 -3.75,0 -3.75,-24.375 z m 110,0 c 0,-24.375 0,-24.375 3.75,-24.375 3.75,0 3.75,0 3.75,24.375 0,24.375 0,24.375 -3.75,24.375 -3.75,0 -3.75,0 -3.75,-24.375 z m 0,-36.25 c 0,-4.166666 0.20834,-4.375 4.375,-4.375 4.16666,0 4.375,0.208334 4.375,4.375 0,4.166666 -0.20834,4.375 -4.375,4.375 -4.16666,0 -4.375,-0.208334 -4.375,-4.375 z"
       id="path4400"
       inkscape:connector-curvature="0" />
    <path
       style="fill:#0089ea"
       d="m 48.989129,184.53873 c -14.469097,-1.42483 -28.276162,-4.56076 -31.875,-7.23963 -3.124999,-2.32613 -3.124999,-2.32613 -3.518346,-29.42932 -0.259573,-17.88564 0.08892,-28.56447 1.024717,-31.39995 1.962197,-5.94552 11.381356,-13.87734 19.529751,-16.44589 3.692632,-1.164002 6.713878,-2.600691 6.713878,-3.192644 0,-0.591952 -1.361212,-2.544283 -3.024916,-4.338513 -3.723879,-4.016035 -8.225084,-15.44707 -8.225084,-20.888008 0,-12.573906 8.651854,-25.739622 20.17134,-30.695172 5.170945,-2.22448 8.211666,-2.699414 14.734596,-2.301409 4.520485,0.275822 10.411136,1.562079 13.090334,2.858347 6.241614,3.019859 14.178564,10.796369 16.311875,15.982139 4.676252,11.367291 3.348853,23.022324 -3.806767,33.424765 -4.219077,6.13346 -4.219077,6.13346 0.452273,6.981076 2.569242,0.466188 6.693357,1.863424 9.1647,3.104969 4.7377,2.38011 11.70565,9.55336 13.84861,14.25663 1.05358,2.31235 0.71349,3.35392 -1.97191,6.03932 -2.7777,2.7777 -3.24505,4.33338 -3.24505,10.80188 0,7.55681 0,7.55681 -7.22187,7.55681 -8.705612,0 -12.77813,2.35117 -12.77813,7.37715 0,5.49837 3.424057,7.62285 12.28593,7.62285 7.71407,0 7.71407,0 7.71407,7.55681 0,6.44164 0.47235,8.02918 3.20076,10.75759 1.76041,1.76041 2.99498,3.40652 2.74348,3.65802 -0.25149,0.2515 -5.76996,1.85728 -12.26325,3.56842 -6.493297,1.71112 -17.631215,3.6957 -24.750934,4.41015 -14.062653,1.41117 -13.703297,1.41151 -28.305057,-0.0264 z M 190.3114,87.823585 c -6.41371,-2.381891 -10.66167,-5.593754 -14.1217,-10.677351 -3.8172,-5.608361 -5.31035,-11.626716 -5.3186,-21.437446 -0.0125,-14.200329 5.48844,-24.959904 15.37794,-30.081465 7.13703,-3.69611 19.25444,-3.724043 27.42759,-0.06322 5.47557,2.452552 5.9375,3.006117 5.9375,7.115427 0,4.455975 0,4.455975 -6.66358,0.695288 -12.26476,-6.921804 -24.7767,-4.337982 -30.8153,6.363627 -2.62331,4.649021 -3.10715,7.145744 -3.125,16.125686 -0.0185,9.329233 0.3929,11.329269 3.37375,16.399844 3.99948,6.803324 9.49659,9.850159 17.77169,9.850159 5.83459,0 11.4642,-1.94202 16.64594,-5.742265 2.78076,-2.039388 2.8125,-2.010779 2.8125,2.535087 0,4.258409 -0.42209,4.784463 -5.71884,7.127467 -7.59029,3.357548 -17.36411,4.09903 -23.58389,1.789167 z m 47.42773,0.891495 c -1.375,-0.334975 -3.56201,-1.535349 -4.86003,-2.667499 -4.70085,-4.100168 -5.76497,-9.318073 -5.76497,-28.268303 0,-18.165149 0,-18.165149 3.75,-18.165149 3.75,0 3.75,0 3.75,18.471867 0,21.856939 0.81196,24.028133 8.98584,24.028133 2.97891,0 6.84217,-1.080381 9.30412,-2.601949 4.21004,-2.60195 4.21004,-2.60195 4.21004,-21.25 0,-18.648051 0,-18.648051 3.75,-18.648051 3.75,0 3.75,0 3.75,24.375 0,24.375 0,24.375 -3.75,24.375 -2.91666,0 -3.75,-0.555555 -3.75,-2.5 0,-1.375 -0.14063,-2.497646 -0.3125,-2.494769 -0.17188,0.0029 -3.07971,1.409128 -6.46185,3.125 -6.10246,3.095983 -7.78831,3.393094 -12.60065,2.22072 z m 77.26839,-0.930522 c -4.85937,-2.113482 -8.20508,-8.19061 -8.11469,-14.739494 0.0809,-5.855265 2.68834,-10.203291 7.66112,-12.774819 2.89238,-1.495705 16.46068,-4.24502 21.62268,-4.381355 0.51562,-0.01363 0.9375,-1.418044 0.9375,-3.120945 0,-1.935771 -1.18926,-3.875417 -3.17315,-5.175315 -2.55513,-1.674175 -5.12555,-1.945312 -13.1971,-1.392076 -10.02395,0.687056 -10.02395,0.687056 -9.63935,-2.609136 0.33045,-2.832148 1.1765,-3.43976 6.0096,-4.315987 6.1865,-1.121592 16.60616,-0.227626 20.2831,1.74021 1.29287,0.691924 3.44347,3.050268 4.77911,5.240765 2.12366,3.482882 2.42903,6.375115 2.43311,23.045223 0.005,19.0625 0.005,19.0625 -3.74532,19.0625 -2.91666,0 -3.75,-0.555555 -3.75,-2.5 0,-1.375 -0.14063,-2.497646 -0.3125,-2.494769 -0.17188,0.0029 -3.07971,1.409128 -6.46185,3.125 -3.38214,1.715873 -7.31964,3.097751 -8.75,3.070841 -1.43036,-0.02691 -4.39238,-0.8282 -6.58226,-1.780643 z m 18.7517,-7.50973 c 3.10485,-2.03438 3.35491,-2.842895 3.35491,-10.847515 0,-8.649292 0,-8.649292 -6.5625,-7.819918 -9.03676,1.142073 -14.42331,3.55927 -16.09176,7.221125 -2.00082,4.391293 -0.40782,11.36577 2.98947,13.088578 3.75884,1.906153 12.18995,1.057211 16.30988,-1.64227 z M 277.11413,63.989129 c 0,-24.375 0,-24.375 3.6708,-24.375 3.16377,0 3.72491,0.521135 4.0625,3.772889 0.3917,3.772888 0.3917,3.772888 4.7667,0.652761 2.40625,-1.716071 6.20312,-3.484184 8.4375,-3.929139 3.98499,-0.793576 4.0625,-0.722559 4.0625,3.722239 0,4.401947 -0.13376,4.531384 -4.6875,4.535922 -2.57813,0.0026 -6.51563,1.119303 -8.75,2.481628 -4.0625,2.476954 -4.0625,2.476954 -4.0625,19.995327 0,17.518373 0,17.518373 -3.75,17.518373 -3.75,0 -3.75,0 -3.75,-24.375 z"
       id="path4398"
       inkscape:connector-curvature="0" />
    <path
       style="fill:#1968ba"
       d="m 190.3114,87.823585 c -6.41371,-2.381891 -10.66167,-5.593754 -14.1217,-10.677351 -3.8172,-5.608361 -5.31035,-11.626716 -5.3186,-21.437446 -0.0125,-14.200329 5.48844,-24.959904 15.37794,-30.081465 7.13703,-3.69611 19.25444,-3.724043 27.42759,-0.06322 5.47557,2.452552 5.9375,3.006117 5.9375,7.115427 0,4.455975 0,4.455975 -6.66358,0.695288 -12.26476,-6.921804 -24.7767,-4.337982 -30.8153,6.363627 -2.62331,4.649021 -3.10715,7.145744 -3.125,16.125686 -0.0185,9.329233 0.3929,11.329269 3.37375,16.399844 3.99948,6.803324 9.49659,9.850159 17.77169,9.850159 5.83459,0 11.4642,-1.94202 16.64594,-5.742265 2.78076,-2.039388 2.8125,-2.010779 2.8125,2.535087 0,4.258409 -0.42209,4.784463 -5.71884,7.127467 -7.59029,3.357548 -17.36411,4.09903 -23.58389,1.789167 z m 47.42773,0.891495 c -1.375,-0.334975 -3.56201,-1.535349 -4.86003,-2.667499 -4.70085,-4.100168 -5.76497,-9.318073 -5.76497,-28.268303 0,-18.165149 0,-18.165149 3.75,-18.165149 3.75,0 3.75,0 3.75,18.471867 0,21.856939 0.81196,24.028133 8.98584,24.028133 2.97891,0 6.84217,-1.080381 9.30412,-2.601949 4.21004,-2.60195 4.21004,-2.60195 4.21004,-21.25 0,-18.648051 0,-18.648051 3.75,-18.648051 3.75,0 3.75,0 3.75,24.375 0,24.375 0,24.375 -3.75,24.375 -2.91666,0 -3.75,-0.555555 -3.75,-2.5 0,-1.375 -0.14063,-2.497646 -0.3125,-2.494769 -0.17188,0.0029 -3.07971,1.409128 -6.46185,3.125 -6.10246,3.095983 -7.78831,3.393094 -12.60065,2.22072 z m 77.26839,-0.930522 c -4.85937,-2.113482 -8.20508,-8.19061 -8.11469,-14.739494 0.0809,-5.855265 2.68834,-10.203291 7.66112,-12.774819 2.89238,-1.495705 16.46068,-4.24502 21.62268,-4.381355 0.51562,-0.01363 0.9375,-1.418044 0.9375,-3.120945 0,-1.935771 -1.18926,-3.875417 -3.17315,-5.175315 -2.55513,-1.674175 -5.12555,-1.945312 -13.1971,-1.392076 -10.02395,0.687056 -10.02395,0.687056 -9.63935,-2.609136 0.33045,-2.832148 1.1765,-3.43976 6.0096,-4.315987 6.1865,-1.121592 16.60616,-0.227626 20.2831,1.74021 1.29287,0.691924 3.44347,3.050268 4.77911,5.240765 2.12366,3.482882 2.42903,6.375115 2.43311,23.045223 0.005,19.0625 0.005,19.0625 -3.74532,19.0625 -2.91666,0 -3.75,-0.555555 -3.75,-2.5 0,-1.375 -0.14063,-2.497646 -0.3125,-2.494769 -0.17188,0.0029 -3.07971,1.409128 -6.46185,3.125 -3.38214,1.715873 -7.31964,3.097751 -8.75,3.070841 -1.43036,-0.02691 -4.39238,-0.8282 -6.58226,-1.780643 z m 18.7517,-7.50973 c 3.10485,-2.03438 3.35491,-2.842895 3.35491,-10.847515 0,-8.649292 0,-8.649292 -6.5625,-7.819918 -9.03676,1.142073 -14.42331,3.55927 -16.09176,7.221125 -2.00082,4.391293 -0.40782,11.36577 2.98947,13.088578 3.75884,1.906153 12.18995,1.057211 16.30988,-1.64227 z M 277.11413,63.989129 c 0,-24.375 0,-24.375 3.6708,-24.375 3.16377,0 3.72491,0.521135 4.0625,3.772889 0.3917,3.772888 0.3917,3.772888 4.7667,0.652761 2.40625,-1.716071 6.20312,-3.484184 8.4375,-3.929139 3.98499,-0.793576 4.0625,-0.722559 4.0625,3.722239 0,4.401947 -0.13376,4.531384 -4.6875,4.535922 -2.57813,0.0026 -6.51563,1.119303 -8.75,2.481628 -4.0625,2.476954 -4.0625,2.476954 -4.0625,19.995327 0,17.518373 0,17.518373 -3.75,17.518373 -3.75,0 -3.75,0 -3.75,-24.375 z"
       id="path4396"
       inkscape:connector-curvature="0" />
  </g>
</svg>
