<?xml version="1.0" encoding="UTF-8" standalone="no"?>
<!-- Created with Inkscape (http://www.inkscape.org/) -->

<svg
   xmlns:dc="http://purl.org/dc/elements/1.1/"
   xmlns:cc="http://creativecommons.org/ns#"
   xmlns:rdf="http://www.w3.org/1999/02/22-rdf-syntax-ns#"
   xmlns:svg="http://www.w3.org/2000/svg"
   xmlns="http://www.w3.org/2000/svg"
   xmlns:sodipodi="http://sodipodi.sourceforge.net/DTD/sodipodi-0.dtd"
   xmlns:inkscape="http://www.inkscape.org/namespaces/inkscape"
   id="svg4167"
   version="1.1"
   inkscape:version="0.91 r13725"
   width="487"
   height="187"
   viewBox="0 0 487 187"
   sodipodi:docname="xampsont_svg.svg">
  <metadata
     id="metadata4173">
    <rdf:RDF>
      <cc:Work
         rdf:about="">
        <dc:format>image/svg+xml</dc:format>
        <dc:type
           rdf:resource="http://purl.org/dc/dcmitype/StillImage" />
        <dc:title></dc:title>
      </cc:Work>
    </rdf:RDF>
  </metadata>
  <defs
     id="defs4171">
    <filter
       style="color-interpolation-filters:sRGB;"
       inkscape:label="Greyscale"
       id="filter4166">
      <feColorMatrix
         values="10 10 10 -8.18 0 10 10 10 -8.18 0 10 10 10 -8.18 0 0 0 0 1 0 "
         id="feColorMatrix4168" />
    </filter>
  </defs>
  <sodipodi:namedview
     pagecolor="#ffffff"
     bordercolor="#666666"
     borderopacity="1"
     objecttolerance="10"
     gridtolerance="10"
     guidetolerance="10"
     inkscape:pageopacity="0"
     inkscape:pageshadow="2"
     inkscape:window-width="1600"
     inkscape:window-height="838"
     id="namedview4169"
     showgrid="false"
     inkscape:zoom="1.4835225"
     inkscape:cx="144.07448"
     inkscape:cy="93.5"
     inkscape:window-x="-8"
     inkscape:window-y="-8"
     inkscape:window-maximized="1"
     inkscape:current-layer="svg4167" />
  <g
     id="g4763"
     transform="translate(10.11107,10.785147)"
     style="filter:url(#filter4166)">
    <path
       style="fill:#9fe3e7"
       d="m 35.728713,156.48841 c -12.233072,-2.05667 -21.488652,-5.18847 -22.93363,-7.76002 -0.918468,-1.63455 -1.257875,-9.69012 -1.273619,-30.22839 -0.02849,-37.162533 -0.04369,-37.133954 25.310812,-47.571942 2.332275,-0.960155 2.332275,-0.960155 -1.234402,-5.92471 -11.39988,-15.8678 -9.920035,-33.196677 3.914698,-45.840844 16.235724,-14.8385364 44.585971,-8.96317 53.610932,11.110446 4.791259,10.656876 2.179505,28.617918 -5.122281,35.225943 -1.96311,1.77659 -2.730008,4.522137 -1.251223,4.479465 0.78733,-0.02272 1.662741,-1.542611 7.055556,-12.249877 4.381381,-8.699096 4.63882,-18.213591 0.751658,-27.779954 -1.404643,-3.456848 -2.353983,-6.485091 -2.109645,-6.729429 0.926275,-0.926275 20.270301,-0.378997 25.052431,0.708779 29.85822,6.791759 53.20569,40.299765 48.65015,69.822123 -3.62612,23.49923 -19.14219,44.00394 -38.95802,51.48358 -3.96816,1.49781 -3.83849,1.84961 -3.21897,-8.73358 0.52684,-9 0.52684,-9 8.62874,-9.5 C 142.09067,126.41441 144,125.24727 144,120.03254 144,114.55064 141.7406,113 133.75305,113 123.93675,113 124,113.05875 124,103.9397 124,96.56208 123.84115,95.986043 121.34076,94.296685 118.15725,92.145784 115.50278,89.337627 109.71707,82 105.52398,76.682196 99.857772,72 97.615465,72 c -0.598822,0 1.214572,1.55116 4.029765,3.447021 3.10433,2.090581 6.72262,5.849166 9.19489,9.551412 4.07635,6.104391 4.07635,6.104391 0.96237,8.886736 -2.90064,2.591721 -3.14638,3.341835 -3.58672,10.948591 C 107.74303,113 107.74303,113 100.93661,113 c -8.191339,0 -11.590045,1.14527 -13.075817,4.40618 -2.842122,6.23778 1.298942,9.74457 12.267757,10.38873 7.62854,0.448 7.62854,0.448 8.08521,8.33669 0.37803,6.53028 0.8616,8.31971 2.80821,10.39179 3.0719,3.26989 2.40141,3.79223 -8.94289,6.96682 -16.422501,4.59568 -48.284828,6.03546 -66.350367,2.9982 z M 138.45824,93.721135 C 138.72326,92.499511 139.06607,90.375 139.22005,89 c 0.24126,-2.154519 0.88778,-2.569096 4.67837,-3 8.37065,-0.951553 8.19233,-6.79699 -0.25497,-8.35818 C 139.69521,76.912127 139,76.435287 139,74.45692 139,70.022285 137.2101,67 134.58377,67 c -2.96743,0 -3.46938,0.710295 -4.40592,6.234639 -0.72237,4.261075 -0.7281,4.265863 -5.70047,4.765361 -8.63544,0.867469 -7.10752,8 1.71375,8 3.77702,0 3.80887,0.03345 3.80887,4 0,7.319684 7.00866,10.40309 8.45824,3.721135 z M 92.25,70.337719 c -0.6875,-0.277412 -1.8125,-0.277412 -2.5,0 -0.6875,0.277413 -0.125,0.504386 1.25,0.504386 1.375,0 1.9375,-0.226973 1.25,-0.504386 z M 201.71348,84.612791 C 175.69063,77.424615 172.08227,33.564369 196.45505,20.695727 202.72971,17.382755 218.59798,17.54899 225.5,21 c 4.31499,2.157497 5.0436,2.954203 5.31823,5.815324 0.51005,5.313677 -1.2541,6.507232 -5.42975,3.673559 -11.82065,-8.021711 -26.93627,-5.141869 -32.5168,6.195133 -3.66209,7.439621 -3.94628,21.289001 -0.58741,28.625737 2.56668,5.60636 6.89741,9.641457 12.26912,11.431587 5.07359,1.690776 17.76072,-0.905651 21.65753,-4.432224 C 228.81998,69.947951 231,71.375682 231,75.445562 c 0,7.101711 -17.23428,12.496365 -29.28652,9.167229 z M 242.15625,79.15625 C 237.29566,74.295656 237,72.672229 237,50.843615 c 0,-19.336388 0.12956,-19.780866 5.38166,-18.462671 2.3772,0.596637 2.3772,0.596637 2.78872,19.729362 0.39934,18.566281 0.48021,19.188339 2.73136,21.011209 3.08048,2.494422 8.37651,2.379251 13.73873,-0.29877 C 266,70.64549 266,70.64549 266,51.929734 266,31.732462 265.92671,32 271.45934,32 c 4.37222,0 4.59302,1.364288 4.30905,26.624627 C 275.5,82.5 275.5,82.5 271.52953,82.5 c -3.01843,0 -4.21835,-0.497216 -5.00428,-2.073637 -1.03382,-2.073638 -1.03382,-2.073638 -6.02954,0.237133 -7.97385,3.688313 -13.60685,3.22536 -18.33946,-1.507246 z m 44.55747,3.224138 c -1.57938,-1.579386 -0.81741,-49.126621 0.79722,-49.746212 2.98898,-1.14698 7.48803,0.513539 8.11044,2.993418 0.7333,2.921707 0.7659,2.921526 5.80604,-0.03219 2.25672,-1.322528 5.67126,-2.560028 7.58786,-2.75 C 312.5,32.5 312.5,32.5 312.5,37.5 c 0,5 0,5 -6,5.579324 -10.66132,1.029393 -10.41384,0.5358 -10.72832,21.397683 C 295.5,82.5 295.5,82.5 291.46372,82.797055 c -2.21995,0.16338 -4.35745,-0.02412 -4.75,-0.416667 z m 36.47814,-1.404786 c -7.76645,-4.735079 -9.28791,-17.639503 -2.91117,-24.691381 2.3859,-2.638507 11.9463,-5.90982 20.02357,-6.851524 5.76875,-0.672562 5.8024,-0.695698 5.5,-3.781896 -0.46988,-4.795459 -3.48677,-5.853801 -15.10918,-5.300387 -9.80492,0.466873 -9.80492,0.466873 -9.5,-3.133924 0.26939,-3.181231 0.71274,-3.706944 3.80492,-4.511765 6.0775,-1.581828 19.16207,-0.385716 23.22077,2.122704 6.02906,3.726162 6.69533,6.415321 7.00466,28.271918 C 355.5,82.5 355.5,82.5 351.52953,82.5 c -3.05283,0 -4.21601,-0.492523 -5.03292,-2.13107 -1.06245,-2.131069 -1.06245,-2.131069 -5.52953,0.204813 -5.78124,3.023068 -13.20081,3.190809 -17.77522,0.401859 z m 18.7879,-7.584182 C 346,71.782841 346,71.782841 346,63.89142 346,56 346,56 342.6815,56 c -10.2658,0 -19.45803,6.255953 -18.26708,12.432016 1.22054,6.329523 8.79573,8.468306 17.56534,4.959404 z m 34.22637,8.400626 C 369.27347,79.463115 367.13756,72.109993 367.04391,50.25 367.0005,40.117771 366.9725,40 364.60699,40 c -2.55807,0 -3.90938,-2.048399 -2.96862,-4.5 0.31659,-0.825 1.6319,-1.5 2.92293,-1.5 2.20206,0 2.36562,-0.417725 2.64301,-6.75 0.29569,-6.75 0.29569,-6.75 3.89785,-7.051551 3.60215,-0.301552 3.60215,-0.301552 4.25233,5.918998 0.80092,7.662825 0.32723,7.242686 8.69919,7.715744 6.9005,0.389913 6.94632,0.411546 6.94632,3.279656 0,2.814514 -0.13209,2.887497 -5.25,2.900808 -9.73347,0.02531 -9.37675,-0.428736 -10.06788,12.814901 -1.02114,19.56715 0.6811,23.551953 9.81788,22.982869 4.42733,-0.275756 5.03416,-0.07233 5.29826,1.77608 0.58844,4.118486 -7.72109,6.512773 -14.59213,4.204541 z m 51.83711,-1.072768 c -16.74058,-6.808438 -17.54481,-37.967395 -1.18458,-45.895145 10.03784,-4.864078 21.47907,-1.758204 27.2829,7.406301 3.18186,5.024299 3.33768,5.716084 3.34781,14.863026 0.0151,13.6655 -3.61749,20.314188 -13.02141,23.832644 -6.95532,2.602317 -9.59947,2.569021 -16.42472,-0.206826 z m 15.085,-6.285595 c 8.64203,-4.468967 9.48232,-25.17837 1.31267,-32.351417 C 434.67612,33.508664 423,41.853647 423,57.406196 c 0,14.780597 9.28464,22.634934 20.12824,17.027487 z M 398,57.5 c 0,-23.620731 0,-23.620731 3.75,-23.310365 C 405.5,34.5 405.5,34.5 405.5,57.5 c 0,23 0,23 -3.75,23.310365 C 398,81.120731 398,81.120731 398,57.5 Z m -1,-36 c 0,-4.5 0,-4.5 4.5,-4.5 4.5,0 4.5,0 4.5,4.5 0,4.5 0,4.5 -4.5,4.5 -4.5,0 -4.5,0 -4.5,-4.5 z"
       id="path4769"
       inkscape:connector-curvature="0" />
    <path
       style="fill:#5dd0cf"
       d="M 39.596945,156.86122 C 31.221213,155.78646 21.80536,153.5034 16.768376,151.32596 11.827394,149.19003 11.693859,148.29245 11.587214,116.5 11.490732,87.736957 11.527909,87.538733 18.164681,81.430095 22.465702,77.471336 25.151756,75.894556 32.5,73.01491 c 3.3,-1.293212 6.18738,-2.500488 6.416401,-2.682836 0.22902,-0.182348 -1.203414,-2.694162 -3.183187,-5.581808 C 24.69794,48.654496 25.651125,33.273914 38.48151,20.40379 58.685063,0.13766316 95.201697,14.624911 95.437637,43 c 0.07182,8.636989 -1.735558,14.253944 -6.94352,21.579055 -3.668303,5.159546 -3.372126,6.37606 1.559539,6.405632 6.425655,0.03853 18.535824,9.223974 22.857714,17.337342 1.31141,2.461887 1.22575,2.821549 -1.20956,5.078518 -2.99837,2.7788 -3.58527,4.727891 -3.94441,13.099453 -0.2574,6 -0.2574,6 -8.407266,6.5 C 89.794559,113.58624 87,115.31318 87,120.63193 c 0,4.72373 3.393969,6.65247 12.894228,7.32758 C 107.5,128.5 107.5,128.5 108.04388,136.87389 c 0.47284,7.27998 0.85776,8.62805 2.9466,10.31948 3.05832,2.47648 2.45399,2.8653 -9.68957,6.23412 -15.505101,4.30137 -43.012858,5.83213 -61.703965,3.43373 z M 124.06981,142.7566 c 0.5116,-1.78387 0.93019,-5.78622 0.93019,-8.89411 0,-5.65072 0,-5.65072 8.09796,-6.01847 C 142.18563,127.43133 145,125.53958 145,119.84376 145,114.35948 141.25356,112 132.54545,112 125,112 125,112 125,104.63486 125,97.017524 122.80931,92 119.48352,92 118.7293,92 115.52145,88.557688 112.35496,84.350417 106.23757,76.2223 99.981331,71.442751 94.073442,70.383963 87.87003,69.272213 87.724494,68.882407 91.44833,63.352827 c 7.071187,-10.500109 8.404525,-22.856283 3.64131,-33.744362 -1.176947,-2.690344 -1.864783,-5.165344 -1.528525,-5.5 1.391782,-1.385149 21.081055,-0.437742 26.897265,1.294239 22.51764,6.705432 40.02109,27.003566 45.05839,52.252655 1.94435,9.74586 1.32951,15.383753 -3.19926,29.336401 -4.6341,14.27717 -17.04794,28.57452 -30.61336,35.25824 -9.18486,4.52541 -8.7792,4.49849 -7.63434,0.5066 z M 137.76449,96.75 c 0.55516,-0.6875 1.31699,-3.116163 1.69295,-5.397028 0.66042,-4.006652 0.83529,-4.169783 5.16604,-4.819218 C 153.37492,85.221394 152.38636,77 143.47711,77 c -3.07495,0 -3.34788,-0.275634 -3.98046,-4.019817 -1.64212,-9.719646 -8.17696,-9.531655 -10.01918,0.288227 C 128.81758,76.785915 128.56321,77 125.0437,77 c -2.41748,0 -4.34893,0.679794 -5.47885,1.928336 C 116.23857,82.60384 119.98158,87 126.43729,87 c 1.93668,0 2.41493,0.674387 2.97876,4.200386 0.36942,2.310212 1.15703,4.785212 1.75026,5.5 1.37213,1.653322 5.27945,1.682703 6.59818,0.04961 z M 197.29455,82.505874 C 191.0242,79.325356 186.5903,74.492202 183.11143,67.045631 179.60264,59.535023 179.46645,45.442901 182.8203,36.920653 185.16042,30.974334 191.2751,23 193.49459,23 c 0.73631,0 1.48874,-0.432369 1.67208,-0.96082 0.18333,-0.528451 3.25142,-1.70652 6.81797,-2.617932 C 215.48068,15.972413 231,20.660577 231,28.186372 c 0,3.422135 -2.35508,4.683203 -4.78725,2.563408 -11.19753,-9.759414 -30.16246,-5.128931 -34.86636,8.51298 -6.96691,20.204989 4.11745,40.511543 20.85663,38.209318 6.42877,-0.884183 12.61116,-2.993934 14.93432,-5.096369 C 229.52552,70.214433 231,71.450702 231,75.614341 c 0,3.283468 -0.35003,3.657096 -5.75,6.137611 -8.7618,4.0248 -20.86354,4.351168 -27.95545,0.753922 z m 47.31047,-1.367079 C 238.1129,76.723269 237.53598,74.528467 237.14566,52.76104 236.79132,33 236.79132,33 240.87452,33 c 4.0832,0 4.0832,0 4.35434,19.75 0.27114,19.75 0.27114,19.75 3.96249,21.554337 4.17832,2.042372 8.67482,1.33899 14.55865,-2.27739 C 267,70.029397 267,70.029397 267,51.514698 267,33 267,33 271,33 c 4,0 4,0 4,24.440983 0,13.442541 -0.40378,24.690534 -0.89729,24.995541 C 272.164,83.634707 267,81.772358 267,79.875 c 0,-2.407081 -1.00732,-2.360312 -6.077,0.28215 -5.87437,3.061896 -12.65928,3.470057 -16.31798,0.981645 z m 43.10904,1.241932 C 287.32133,81.987994 287,70.689502 287,57.272968 c 0,-24.393699 0,-24.393699 3.75,-24.083333 3.25568,0.269453 3.79171,0.672864 4.06642,3.060365 0.38797,3.371819 0.0317,3.384834 6.84324,-0.25 C 309.94317,31.579675 312,31.865857 312,37.438727 c 0,4.438727 0,4.438727 -4.75,5.029305 C 295.78974,43.892911 295.561,44.304312 295,64.500139 294.5,82.5 294.5,82.5 291.46406,82.797393 c -1.66977,0.163567 -3.35727,-0.02393 -3.75,-0.416666 z m 36.0643,-1.519422 c -6.76104,-4.036671 -9.05916,-13.518798 -5.19503,-21.434835 2.04806,-4.195639 9.39387,-8.04111 17.32378,-9.068854 C 346.34458,49.004884 346,49.168132 346,45.576007 346,40.776275 342.56554,39.59329 330.46798,40.226071 321,40.721307 321,40.721307 321,37.983098 c 0,-4.47863 2.18641,-5.404596 12.8588,-5.44584 10.65276,-0.04117 14.49269,1.36391 18.53667,6.782783 1.94265,2.603121 2.12843,4.32532 2.4153,22.389232 0.17092,10.763055 -0.0822,19.962162 -0.5625,20.442459 C 352.98766,83.412343 347,81.993371 347,80.434017 c 0,-2.431181 -2.01172,-2.58989 -5.50016,-0.433918 -5.2379,3.2372 -13.10183,3.619361 -17.72148,0.861206 z m 18.81949,-7.337743 C 346,72.102053 346,72.102053 346,63.646183 c 0,-8.45587 0,-8.45587 -4.25,-7.963565 -14.34114,1.661225 -21.37152,8.701922 -16.143,16.166681 3.04732,4.350668 9.14682,4.951707 16.99085,1.674263 z m 31.59197,6.474626 C 368.90984,76.741074 368,73.154563 368,55.598541 c 0,-15.465696 0,-15.465696 -2.75,-15.782119 -4.00859,-0.461239 -4.00859,-5.171605 0,-5.632844 2.70516,-0.311264 2.75,-0.429473 2.75,-7.25 C 368,20 368,20 371.5,20 c 3.5,0 3.5,0 3.5,7 0,7 0,7 7.5,7 7.5,0 7.5,0 7.5,3 0,3 0,3 -7.5,3 -7.5,0 -7.5,0 -7.5,15.423275 0,15.22599 0.0339,15.463566 2.65044,18.573146 2.50829,2.980929 2.91465,3.113535 7.5765,2.472367 4.92604,-0.677505 4.92604,-0.677505 4.59955,2.176854 -0.31458,2.750272 -0.54528,2.864207 -6.32649,3.124443 -4.62798,0.208324 -6.75694,-0.196855 -9.31018,-1.771897 z M 429.5,81.282121 C 426.2931,80.503043 421.37886,76.347253 418.84479,72.27141 416.75071,68.903246 416.5,67.307651 416.5,57.34841 c 0,-10.920505 0.0652,-11.241654 3.14842,-15.497859 11.41067,-15.751975 33.6228,-9.965979 37.36064,9.732002 3.74418,19.731388 -9.53363,34.066486 -27.50906,29.699568 z m 11.78212,-5.653242 c 5.09586,-2.171319 7.67012,-5.717382 8.87694,-12.228078 C 453.04485,47.832319 444.78242,36.209637 433,39.263296 425.76124,41.139372 423,46.174958 423,57.5 c 0,10.977323 2.52943,15.847285 9.5,18.290565 4.10093,1.43743 5.07108,1.419568 8.78212,-0.161686 z M 398,57.5 C 398,34 398,34 401.5,34 405,34 405,34 405,57.5 405,81 405,81 401.5,81 398,81 398,81 398,57.5 Z M 397,21 c 0,-4 0,-4 4,-4 4,0 4,0 4,4 0,4 0,4 -4,4 -4,0 -4,0 -4,-4 z"
       id="path4767"
       inkscape:connector-curvature="0" />
    <path
       style="fill:#00bbd3"
       d="M 47.5,157.00683 C 32.745973,156.00208 17.309688,152.47304 14,149.34808 12.750322,148.16814 12.449487,143.22308 12.197313,119.7159 11.896392,91.664581 11.90848,91.473752 14.269817,87 17.074399,81.686482 24.813733,75.872397 32.356295,73.412744 40.247306,70.839459 40.38635,70.542401 36.337633,64.906882 25.387406,49.664965 26.11679,33.162428 38.281306,20.930668 51.802679,7.3345503 74.095146,8.3017999 87.364338,23.060335 97.832461,34.703407 97.628801,52.696723 86.87662,66.150169 c -2.492774,3.119031 -1.809654,4.841253 1.932397,4.871793 6.709552,0.05476 16.073803,6.257611 21.633403,14.32991 3.80783,5.528802 3.80783,5.528802 1.08882,7.867597 -2.81384,2.420362 -4.40306,7.743101 -4.48769,15.030531 C 107,112 107,112 101.75,112.00558 c -8.679405,0.009 -12.680198,1.58311 -14.382859,5.65815 -2.698383,6.45814 1.451685,10.1021 12.566421,11.03392 6.831648,0.57274 6.831648,0.57274 7.449048,5.07712 0.33956,2.4774 0.61739,5.87944 0.61739,7.56008 0,1.91398 0.95409,4.05156 2.5535,5.72099 2.55349,2.66528 2.55349,2.66528 -8.77033,5.78123 -14.078679,3.874 -35.012925,5.48206 -54.28317,4.16976 z M 197.0861,81.885161 c -21.14622,-10.566893 -22.5854,-46.079828 -2.40161,-59.26202 11.56983,-7.556346 36.40857,-3.751099 36.3002,5.561118 -0.0431,3.706562 -1.6089,3.826914 -7.54707,0.580103 -17.11837,-9.359817 -32.90559,0.131313 -34.20358,20.562885 -1.46191,23.011646 14.75108,34.749125 34.60087,25.049485 5.7328,-2.801342 7.59348,-2.360715 6.99975,1.657607 -1.17682,7.964772 -22.2182,11.612611 -33.74856,5.850822 z M 245.05407,80.83473 C 238.47523,76.364384 237.89186,74.243829 237.26186,52.509841 236.69633,33 236.69633,33 240.20887,33 c 3.49062,0 3.51649,0.03278 4.14315,5.25 0.34683,2.8875 0.63451,11.629839 0.63929,19.42742 0.009,14.120511 0.0193,14.185739 2.64355,16.25 3.52292,2.771131 7.89036,2.61181 14.1688,-0.516868 C 267,70.821105 267,70.821105 267,51.910552 267,33 267,33 271,33 c 4,0 4,0 4,24.560365 0,24.560366 0,24.560366 -3.75,24.25 -3.01222,-0.249303 -3.81287,-0.753036 -4.06955,-2.560365 -0.3905,-2.749546 -0.003,-2.767322 -5.39718,0.247567 -6.74231,3.768353 -12.47677,4.226707 -16.7292,1.337163 z m 79.97811,0.374276 C 315.63374,76.027413 314.13305,60.890278 322.47586,55.423863 326.33225,52.897055 335.73167,50 340.07344,50 345.36485,50 347,49.148502 347,46.393011 c 0,-5.581798 -8.0829,-8.347867 -19,-6.50204 -6.18351,1.045486 -7.53621,0.381614 -6.62446,-3.251105 0.80084,-3.190804 3.21396,-3.923903 13.12792,-3.988226 9.65436,-0.06264 14.92334,2.092127 17.9687,7.34836 1.80816,3.120831 2.06321,5.585427 2.3543,22.75 0.32646,19.25 0.32646,19.25 -3.34362,19.25 -2.82908,0 -3.78993,-0.458303 -4.19309,-2 -0.65322,-2.497897 -1.39778,-2.495697 -6.32639,0.01869 -5.97609,3.048774 -11.77448,3.482006 -15.93118,1.190314 z M 341.75,74.02693 C 346,72.097784 346,72.097784 346,63.420061 c 0,-8.677722 0,-8.677722 -5.16784,-7.992184 C 330.12779,56.847862 324,61.0546 324,66.983184 c 0,8.149612 8.17065,11.391975 17.75,7.043746 z M 287,57.439635 c 0,-24.560366 0,-24.560366 3.75,-24.25 3.25568,0.269453 3.79171,0.672864 4.06642,3.060365 0.38911,3.381704 1.69027,3.449254 6.28604,0.326343 1.96171,-1.333012 5.21617,-2.733093 7.23214,-3.111291 C 312,32.777418 312,32.777418 312,37.251028 c 0,4.473609 0,4.473609 -5.63794,5.136238 C 295.0486,43.716942 295,43.810308 295,64.215608 295,82 295,82 291,82 c -4,0 -4,0 -4,-24.560365 z"
       id="path4765"
       inkscape:connector-curvature="0" />
  </g>
</svg>
